<svg xmlns="http://www.w3.org/2000/svg" viewBox="0 0 128 128" fill="none" role="img" aria-labelledby="title desc">
  <title id="title">gh-daily icon</title>
  <desc id="desc">Archive box with trend bars and upward arrow.</desc>

  <rect x="8" y="8" width="112" height="112" rx="22" fill="#FFF7ED"/>
  <rect x="8" y="8" width="112" height="112" rx="22" stroke="#FDBA74" stroke-width="4"/>

  <rect x="24" y="34" width="80" height="58" rx="10" fill="#0F172A"/>
  <rect x="20" y="28" width="88" height="14" rx="7" fill="#1E293B"/>
  <rect x="36" y="66" width="10" height="16" rx="2" fill="#FB923C"/>
  <rect x="52" y="58" width="10" height="24" rx="2" fill="#F97316"/>
  <rect x="68" y="49" width="10" height="33" rx="2" fill="#EA580C"/>
  <rect x="84" y="42" width="10" height="40" rx="2" fill="#C2410C"/>

  <path d="M35 62L52 52L67 56L90 38" stroke="#22C55E" stroke-width="6" stroke-linecap="round" stroke-linejoin="round"/>
  <path d="M84.5 34.5L93.5 37.5L90.5 46.5" stroke="#22C55E" stroke-width="5" stroke-linecap="round" stroke-linejoin="round"/>

  <rect x="34" y="95" width="60" height="8" rx="4" fill="#FDBA74"/>
  <rect x="56" y="97" width="16" height="4" rx="2" fill="#9A3412"/>
</svg>
